<svg width="5374.011" height="714.007" viewBox="0 0 5374.011 714.007" xmlns="http://www.w3.org/2000/svg"><g id="svgGroup" stroke-linecap="round" fill-rule="evenodd" font-size="9pt" stroke="#ffffff" stroke-width="0.25mm" fill="#ffffff" style="stroke:#ffffff;stroke-width:0.25mm;fill:#ffffff"><path d="M 2477 700.002 L 2477 580.002 L 2651 580.002 L 2651 120.002 L 2483 120.002 L 2483 0.002 L 2777 0.002 L 2777 580.002 L 2939 580.002 L 2939 700.002 L 2477 700.002 Z M 5374 546.002 L 5374 552.002 A 163.407 163.407 0 0 1 5364.742 608.14 A 140.992 140.992 0 0 1 5320 670.002 A 179.548 179.548 0 0 1 5258.538 701.947 Q 5219.297 714.002 5168 714.002 A 374.835 374.835 0 0 1 5123.681 711.527 Q 5093.344 707.908 5069 699.002 A 272.618 272.618 0 0 1 5034.178 683.581 Q 5016.137 673.942 5001.914 662.258 A 168.507 168.507 0 0 1 5001 661.502 A 180.603 180.603 0 0 1 4973.959 633.815 A 150.636 150.636 0 0 1 4959.5 611.502 A 217.395 217.395 0 0 1 4946.775 582.707 A 170.557 170.557 0 0 1 4940 558.002 L 5056 520.002 Q 5064 552.002 5089.5 576.002 Q 5115 600.002 5168 600.002 A 239.025 239.025 0 0 0 5189.579 599.103 Q 5210.783 597.172 5223.551 591.095 A 42.727 42.727 0 0 0 5232.5 585.502 A 62.435 62.435 0 0 0 5241.539 576.434 Q 5250 565.822 5250 554.002 Q 5250 544.002 5245.5 535.502 A 31.681 31.681 0 0 0 5240.606 528.761 Q 5237.945 525.908 5234.353 523.178 A 71.458 71.458 0 0 0 5229 519.502 Q 5217 512.002 5196.5 507.002 A 257.87 257.87 0 0 0 5179.648 503.533 Q 5170.58 501.956 5160.065 500.654 A 568.385 568.385 0 0 0 5145 499.002 Q 5061 492.002 5011.5 455.502 Q 4962 419.002 4962 348.002 L 4962 342.002 Q 4962 305.002 4978 277.002 Q 4994 249.002 5020 229.502 A 182.429 182.429 0 0 1 5068.549 203.72 A 213.262 213.262 0 0 1 5080 200.002 Q 5114 190.002 5150 190.002 A 323.529 323.529 0 0 1 5188.083 192.125 Q 5207.373 194.415 5223.979 199.174 A 184.637 184.637 0 0 1 5231.5 201.502 Q 5266 213.002 5290 231.502 Q 5314 250.002 5329 272.502 Q 5344 295.002 5352 316.002 L 5238 362.002 A 85.772 85.772 0 0 0 5222.204 333.366 A 80.717 80.717 0 0 0 5207 319.502 A 80.546 80.546 0 0 0 5179.956 307.408 Q 5166.406 304.002 5150 304.002 A 143.67 143.67 0 0 0 5133.266 304.912 Q 5114.542 307.114 5103.236 314.647 A 42.358 42.358 0 0 0 5102 315.502 A 44.546 44.546 0 0 0 5093.056 323.849 A 31.487 31.487 0 0 0 5086 344.002 A 35.328 35.328 0 0 0 5090.126 361.274 Q 5096.156 372.268 5111 378.502 A 123.15 123.15 0 0 0 5126.062 383.533 Q 5151.293 390.423 5197.528 395.519 A 1093.891 1093.891 0 0 0 5202 396.002 A 299.396 299.396 0 0 1 5259.003 407.332 Q 5293.848 418.087 5320.56 437.412 A 184.385 184.385 0 0 1 5326 441.502 A 121.817 121.817 0 0 1 5373.341 530.704 A 173.476 173.476 0 0 1 5374 546.002 Z M 0 700.002 L 0 574.002 L 66 574.002 L 66 126.002 L 0 126.002 L 0 0.002 L 307 0.002 A 304.83 304.83 0 0 1 351.348 3.078 A 224.574 224.574 0 0 1 395.5 14.002 Q 434 28.002 460.5 52.002 Q 487 76.002 500.5 109.502 A 189.096 189.096 0 0 1 513.787 172.301 A 219.585 219.585 0 0 1 514 182.002 L 514 194.002 Q 514 254.002 480.5 290.002 Q 447 326.002 396 340.002 L 396 358.002 A 181.663 181.663 0 0 1 455.092 385.843 A 169.018 169.018 0 0 1 480.5 408.502 A 124.068 124.068 0 0 1 510.393 468.157 A 178.963 178.963 0 0 1 514 505.002 L 514 517.002 A 198.198 198.198 0 0 1 506.719 571.317 A 179.987 179.987 0 0 1 500.5 589.502 Q 487 623.002 460.5 647.502 A 179.403 179.403 0 0 1 417.302 676.764 A 221.776 221.776 0 0 1 395.5 686.002 A 225.56 225.56 0 0 1 349.951 697.128 A 306.401 306.401 0 0 1 307 700.002 L 0 700.002 Z M 1361 628.002 L 1361 700.002 L 1235 700.002 L 1235 0.002 L 1361 0.002 L 1361 276.002 L 1379 276.002 Q 1399 235.002 1437 212.502 A 150.605 150.605 0 0 1 1478.74 195.984 Q 1497.368 191.498 1519.138 190.376 A 288.896 288.896 0 0 1 1534 190.002 Q 1578 190.002 1617.5 207.002 Q 1657 224.002 1686.5 256.502 A 227.648 227.648 0 0 1 1721.224 307.712 A 283.221 283.221 0 0 1 1733.5 336.002 A 272.559 272.559 0 0 1 1747.885 394.691 A 360.025 360.025 0 0 1 1751 443.002 L 1751 461.002 A 373.749 373.749 0 0 1 1747.265 515.113 A 275.378 275.378 0 0 1 1734 569.002 A 265.699 265.699 0 0 1 1711.448 616.681 A 216.138 216.138 0 0 1 1688 648.502 Q 1659 681.002 1619.5 697.502 A 216.667 216.667 0 0 1 1543.985 713.805 A 250.753 250.753 0 0 1 1534 714.002 Q 1504.3 714.002 1481.467 708.661 A 154.566 154.566 0 0 1 1475 707.002 A 177.308 177.308 0 0 1 1450.272 698.153 A 138.533 138.533 0 0 1 1431.5 688.002 A 138.126 138.126 0 0 1 1409.803 670.745 A 119.324 119.324 0 0 1 1400.5 660.502 Q 1388 645.002 1379 628.002 L 1361 628.002 Z M 4421 628.002 L 4421 700.002 L 4295 700.002 L 4295 0.002 L 4421 0.002 L 4421 276.002 L 4439 276.002 Q 4459 235.002 4497 212.502 A 150.605 150.605 0 0 1 4538.74 195.984 Q 4557.368 191.498 4579.138 190.376 A 288.896 288.896 0 0 1 4594 190.002 Q 4638 190.002 4677.5 207.002 Q 4717 224.002 4746.5 256.502 A 227.648 227.648 0 0 1 4781.224 307.712 A 283.221 283.221 0 0 1 4793.5 336.002 A 272.559 272.559 0 0 1 4807.885 394.691 A 360.025 360.025 0 0 1 4811 443.002 L 4811 461.002 A 373.749 373.749 0 0 1 4807.265 515.113 A 275.378 275.378 0 0 1 4794 569.002 A 265.699 265.699 0 0 1 4771.448 616.681 A 216.138 216.138 0 0 1 4748 648.502 Q 4719 681.002 4679.5 697.502 A 216.667 216.667 0 0 1 4603.985 713.805 A 250.753 250.753 0 0 1 4594 714.002 Q 4564.3 714.002 4541.467 708.661 A 154.566 154.566 0 0 1 4535 707.002 A 177.308 177.308 0 0 1 4510.272 698.153 A 138.533 138.533 0 0 1 4491.5 688.002 A 138.126 138.126 0 0 1 4469.803 670.745 A 119.324 119.324 0 0 1 4460.5 660.502 Q 4448 645.002 4439 628.002 L 4421 628.002 Z M 2343 493.002 L 1979 493.002 A 98.422 98.422 0 0 0 1986.739 527.635 A 93.81 93.81 0 0 0 1989.5 533.502 Q 1999 552.002 2015.5 565.502 A 122.734 122.734 0 0 0 2050.171 585.294 A 139.864 139.864 0 0 0 2053.5 586.502 A 137.098 137.098 0 0 0 2098.813 594.002 A 153.561 153.561 0 0 0 2099 594.002 Q 2146 594.002 2171 577.502 A 114.711 114.711 0 0 0 2191.217 560.758 A 88.568 88.568 0 0 0 2207 538.002 L 2315 598.002 Q 2306.141 616.705 2290.498 636.862 A 292.855 292.855 0 0 1 2290 637.502 A 158.594 158.594 0 0 1 2267.651 660.612 A 204.51 204.51 0 0 1 2248.5 675.002 A 197.984 197.984 0 0 1 2219.279 690.938 Q 2204.18 697.674 2186.5 703.002 Q 2153.636 712.906 2110.638 713.893 A 420.194 420.194 0 0 1 2101 714.002 A 302.154 302.154 0 0 1 2039.592 707.986 A 250.861 250.861 0 0 1 1999 696.002 Q 1953 678.002 1919.5 644.002 A 227.927 227.927 0 0 1 1874.965 578.85 A 271.282 271.282 0 0 1 1867.5 561.002 A 282.065 282.065 0 0 1 1852.053 498.232 A 367.143 367.143 0 0 1 1849 450.002 L 1849 444.002 A 289.498 289.498 0 0 1 1855.875 379.84 A 245.277 245.277 0 0 1 1868.5 340.002 A 242.288 242.288 0 0 1 1905.906 277.377 A 222.832 222.832 0 0 1 1922 260.002 Q 1956 227.002 2001.5 208.502 A 255.531 255.531 0 0 1 2095.756 190.02 A 290.63 290.63 0 0 1 2099 190.002 A 305.229 305.229 0 0 1 2150.677 194.156 Q 2180.509 199.282 2205.282 210.734 A 187.919 187.919 0 0 1 2209 212.502 A 255.461 255.461 0 0 1 2257.984 243.451 A 216.516 216.516 0 0 1 2285 269.502 Q 2315 304.002 2329 345.502 A 269.035 269.035 0 0 1 2340.99 396.089 A 227.059 227.059 0 0 1 2343 426.002 L 2343 493.002 Z M 3096 700.002 L 3096 0.002 L 3228 0.002 L 3228 574.002 L 3546 574.002 L 3546 700.002 L 3096 700.002 Z M 983 628.002 L 965 628.002 A 167.529 167.529 0 0 1 947.75 659.385 Q 933.023 680.165 913.164 692.123 A 105.297 105.297 0 0 1 909 694.502 A 159.797 159.797 0 0 1 856.582 711.698 A 209.012 209.012 0 0 1 825 714.002 Q 780 714.002 740.5 697.002 Q 701 680.002 671 647.002 A 231.799 231.799 0 0 1 634.333 592.332 A 282.361 282.361 0 0 1 623.5 567.002 A 272.559 272.559 0 0 1 609.115 508.313 A 360.025 360.025 0 0 1 606 460.002 L 606 444.002 Q 606 385.002 623 338.002 A 270.156 270.156 0 0 1 645.922 289.557 A 222.81 222.81 0 0 1 669 258.002 Q 698 225.002 736.5 207.502 Q 775 190.002 819 190.002 A 255.399 255.399 0 0 1 853.015 192.129 Q 883.172 196.19 904.5 208.002 A 119.257 119.257 0 0 1 945.481 245.995 A 155.257 155.257 0 0 1 956 264.002 L 974 264.002 L 974 204.002 L 1100 204.002 L 1100 550.002 A 48.561 48.561 0 0 0 1101.201 561.324 Q 1105.695 580.002 1127 580.002 L 1146 580.002 L 1146 700.002 L 1060 700.002 A 94.319 94.319 0 0 1 1034.551 696.733 A 71.806 71.806 0 0 1 1004.5 680.002 A 66.481 66.481 0 0 1 983.189 633.897 A 90.477 90.477 0 0 1 983 628.002 Z M 4043 628.002 L 4025 628.002 A 167.529 167.529 0 0 1 4007.75 659.385 Q 3993.023 680.165 3973.164 692.123 A 105.297 105.297 0 0 1 3969 694.502 A 159.797 159.797 0 0 1 3916.582 711.698 A 209.012 209.012 0 0 1 3885 714.002 Q 3840 714.002 3800.5 697.002 Q 3761 680.002 3731 647.002 A 231.799 231.799 0 0 1 3694.333 592.332 A 282.361 282.361 0 0 1 3683.5 567.002 A 272.559 272.559 0 0 1 3669.115 508.313 A 360.025 360.025 0 0 1 3666 460.002 L 3666 444.002 Q 3666 385.002 3683 338.002 A 270.156 270.156 0 0 1 3705.922 289.557 A 222.81 222.81 0 0 1 3729 258.002 Q 3758 225.002 3796.5 207.502 Q 3835 190.002 3879 190.002 A 255.399 255.399 0 0 1 3913.015 192.129 Q 3943.172 196.19 3964.5 208.002 A 119.257 119.257 0 0 1 4005.481 245.995 A 155.257 155.257 0 0 1 4016 264.002 L 4034 264.002 L 4034 204.002 L 4160 204.002 L 4160 550.002 A 48.561 48.561 0 0 0 4161.201 561.324 Q 4165.695 580.002 4187 580.002 L 4206 580.002 L 4206 700.002 L 4120 700.002 A 94.319 94.319 0 0 1 4094.551 696.733 A 71.806 71.806 0 0 1 4064.5 680.002 A 66.481 66.481 0 0 1 4043.189 633.897 A 90.477 90.477 0 0 1 4043 628.002 Z M 1625 458.002 L 1625 446.002 A 175.509 175.509 0 0 0 1620.286 404.143 A 120.201 120.201 0 0 0 1588.5 346.502 A 122.883 122.883 0 0 0 1516.04 311.508 A 170.652 170.652 0 0 0 1493 310.002 A 150.783 150.783 0 0 0 1448.825 316.176 A 118.996 118.996 0 0 0 1397.5 347.502 A 126.594 126.594 0 0 0 1363.281 416.971 A 177.674 177.674 0 0 0 1361 446.002 L 1361 458.002 A 165.698 165.698 0 0 0 1366.569 502.073 A 123.757 123.757 0 0 0 1397.5 556.502 A 122.297 122.297 0 0 0 1473.383 592.894 A 168.9 168.9 0 0 0 1493 594.002 A 155.143 155.143 0 0 0 1536.444 588.208 A 119.664 119.664 0 0 0 1588.5 557.502 Q 1625 521.002 1625 458.002 Z M 4685 458.002 L 4685 446.002 A 175.509 175.509 0 0 0 4680.286 404.143 A 120.201 120.201 0 0 0 4648.5 346.502 A 122.883 122.883 0 0 0 4576.04 311.508 A 170.652 170.652 0 0 0 4553 310.002 A 150.783 150.783 0 0 0 4508.825 316.176 A 118.996 118.996 0 0 0 4457.5 347.502 A 126.594 126.594 0 0 0 4423.281 416.971 A 177.674 177.674 0 0 0 4421 446.002 L 4421 458.002 A 165.698 165.698 0 0 0 4426.569 502.073 A 123.757 123.757 0 0 0 4457.5 556.502 A 122.297 122.297 0 0 0 4533.383 592.894 A 168.9 168.9 0 0 0 4553 594.002 A 155.143 155.143 0 0 0 4596.444 588.208 A 119.664 119.664 0 0 0 4648.5 557.502 Q 4685 521.002 4685 458.002 Z M 974 458.002 L 974 446.002 A 194.192 194.192 0 0 0 969.921 404.981 Q 962.398 370.17 941 346.502 A 109.039 109.039 0 0 0 868.843 310.806 A 152.084 152.084 0 0 0 853 310.002 A 134.344 134.344 0 0 0 813.388 315.572 A 106.215 106.215 0 0 0 765 346.502 Q 732 383.002 732 446.002 L 732 458.002 A 194.192 194.192 0 0 0 736.079 499.024 Q 743.602 533.834 765 557.502 A 109.039 109.039 0 0 0 837.157 593.198 A 152.084 152.084 0 0 0 853 594.002 A 134.344 134.344 0 0 0 892.612 588.433 A 106.215 106.215 0 0 0 941 557.502 Q 974 521.002 974 458.002 Z M 4034 458.002 L 4034 446.002 A 194.192 194.192 0 0 0 4029.921 404.981 Q 4022.398 370.17 4001 346.502 A 109.039 109.039 0 0 0 3928.843 310.806 A 152.084 152.084 0 0 0 3913 310.002 A 134.344 134.344 0 0 0 3873.388 315.572 A 106.215 106.215 0 0 0 3825 346.502 Q 3792 383.002 3792 446.002 L 3792 458.002 A 194.192 194.192 0 0 0 3796.079 499.024 Q 3803.602 533.834 3825 557.502 A 109.039 109.039 0 0 0 3897.157 593.198 A 152.084 152.084 0 0 0 3913 594.002 A 134.344 134.344 0 0 0 3952.612 588.433 A 106.215 106.215 0 0 0 4001 557.502 Q 4034 521.002 4034 458.002 Z M 198 412.002 L 198 574.002 L 294 574.002 Q 327.592 574.002 350.949 562.488 A 86.831 86.831 0 0 0 362 556.002 A 56.925 56.925 0 0 0 384.267 524.385 Q 388 511.916 388 496.002 L 388 490.002 Q 388 461.765 376.248 444.376 A 54.412 54.412 0 0 0 362 430.002 A 95.099 95.099 0 0 0 331.468 416.363 Q 314.672 412.002 294 412.002 L 198 412.002 Z M 198 126.002 L 198 286.002 L 294 286.002 A 164.671 164.671 0 0 0 322.121 283.742 Q 345.344 279.713 362 268.502 A 55.252 55.252 0 0 0 384.033 238.076 Q 387.008 228.575 387.752 216.972 A 124.612 124.612 0 0 0 388 209.002 L 388 203.002 Q 388 175.654 376.976 158.693 A 52.891 52.891 0 0 0 362 143.502 Q 339.263 128.198 304.289 126.278 A 187.697 187.697 0 0 0 294 126.002 L 198 126.002 Z M 1981 385.002 L 2215 385.002 A 86.659 86.659 0 0 0 2184.977 332.94 A 115.532 115.532 0 0 0 2177.5 327.002 A 116.085 116.085 0 0 0 2132.982 307.512 A 165.419 165.419 0 0 0 2098 304.002 A 153.844 153.844 0 0 0 2064.531 307.447 Q 2038.75 313.19 2020 328.502 A 130.831 130.831 0 0 0 1997.285 352.027 A 101.472 101.472 0 0 0 1981 385.002 Z" vector-effect="non-scaling-stroke"/></g></svg>